<svg width="1125" height="279" viewBox="0 0 1125 279" fill="none" xmlns="http://www.w3.org/2000/svg">
<path d="M51.076 234.596H50.076V235.596H51.076V234.596ZM134.796 234.596H135.796V233.596H134.796V234.596ZM134.796 275V276H135.796V275H134.796ZM0.116001 275H-0.883999V276H0.116001V275ZM0.116001 20.928V19.928H-0.883999V20.928H0.116001ZM51.076 20.928H52.076V19.928H51.076V20.928ZM51.076 235.596H134.796V233.596H51.076V235.596ZM133.796 234.596V275H135.796V234.596H133.796ZM134.796 274H0.116001V276H134.796V274ZM1.116 275V20.928H-0.883999V275H1.116ZM0.116001 21.928H51.076V19.928H0.116001V21.928ZM50.076 20.928V234.596H52.076V20.928H50.076ZM204.314 265.536L203.824 266.408L203.835 266.413L204.314 265.536ZM167.55 228.772L166.675 229.257L166.681 229.267L167.55 228.772ZM167.914 119.572L167.051 119.067L167.045 119.077L167.914 119.572ZM205.406 83.172L205.88 84.0525L205.891 84.0468L205.406 83.172ZM310.966 83.172L310.482 84.0469L310.492 84.0525L310.966 83.172ZM348.094 119.572L347.225 120.067L347.231 120.077L348.094 119.572ZM347.73 228.772L346.873 228.257L346.867 228.267L347.73 228.772ZM309.874 265.536L310.348 266.416L310.353 266.414L309.874 265.536ZM282.574 227.316L283.053 228.194L283.062 228.189L282.574 227.316ZM302.23 206.932L303.11 207.408L302.23 206.932ZM294.222 130.128L293.499 130.818L293.507 130.827L293.515 130.835L294.222 130.128ZM220.694 130.128L219.971 129.438L219.97 129.438L220.694 130.128ZM220.33 218.58L219.59 219.252L219.598 219.261L219.606 219.27L220.33 218.58ZM256.73 277.276C237.468 277.276 220.164 273.064 204.794 264.659L203.835 266.413C219.526 274.995 237.166 279.276 256.73 279.276V277.276ZM204.805 264.664C189.435 256.019 177.31 243.896 168.419 228.277L166.681 229.267C175.748 245.195 188.132 257.581 203.824 266.408L204.805 264.664ZM168.425 228.288C159.782 212.683 155.446 194.654 155.446 174.172H153.446C153.446 194.943 157.846 213.315 166.676 229.257L168.425 228.288ZM155.446 174.172C155.446 153.695 159.902 135.67 168.783 120.067L167.045 119.077C157.97 135.021 153.446 153.396 153.446 174.172H155.446ZM168.778 120.077C177.908 104.459 190.272 92.4569 205.88 84.0525L204.932 82.2915C188.994 90.8738 176.363 103.139 167.051 119.067L168.778 120.077ZM205.891 84.0468C221.505 75.3992 238.929 71.068 258.186 71.068V69.068C238.617 69.068 220.855 73.4728 204.922 82.2972L205.891 84.0468ZM258.186 71.068C277.444 71.068 294.868 75.3992 310.482 84.0468L311.451 82.2972C295.518 73.4728 277.756 69.068 258.186 69.068V71.068ZM310.492 84.0525C326.098 92.4556 338.338 104.454 347.225 120.067L348.963 119.077C339.893 103.143 327.381 90.8751 311.44 82.2915L310.492 84.0525ZM347.231 120.077C356.352 135.678 360.926 153.699 360.926 174.172H362.926C362.926 153.391 358.28 135.013 348.958 119.067L347.231 120.077ZM360.926 174.172C360.926 194.64 356.233 212.658 346.873 228.258L348.588 229.286C358.156 213.339 362.926 194.957 362.926 174.172H360.926ZM346.867 228.267C337.737 243.884 325.251 256.009 309.395 264.658L310.353 266.414C326.529 257.591 339.281 245.207 348.594 229.277L346.867 228.267ZM309.4 264.656C293.786 273.063 276.237 277.276 256.73 277.276V279.276C276.535 279.276 294.416 274.996 310.348 266.416L309.4 264.656ZM256.73 234.868C266.117 234.868 274.897 232.643 283.053 228.194L282.095 226.438C274.236 230.725 265.786 232.868 256.73 232.868V234.868ZM283.062 228.189C291.492 223.478 298.174 216.539 303.11 207.408L301.351 206.456C296.58 215.282 290.158 221.932 282.086 226.443L283.062 228.189ZM303.11 207.408C308.06 198.25 310.51 187.157 310.51 174.172H308.51C308.51 186.91 306.107 197.657 301.351 206.456L303.11 207.408ZM310.51 174.172C310.51 154.827 305.365 139.856 294.929 129.421L293.515 130.835C303.464 140.784 308.51 155.176 308.51 174.172H310.51ZM294.946 129.438C284.806 118.803 272.289 113.476 257.458 113.476V115.476C271.748 115.476 283.74 120.584 293.499 130.818L294.946 129.438ZM257.458 113.476C242.628 113.476 230.111 118.803 219.971 129.438L221.418 130.818C231.177 120.584 243.169 115.476 257.458 115.476V113.476ZM219.97 129.438C210.03 139.875 205.134 154.839 205.134 174.172H207.134C207.134 155.163 211.945 140.765 221.418 130.818L219.97 129.438ZM205.134 174.172C205.134 193.5 209.907 208.576 219.59 219.252L221.071 217.908C211.826 207.715 207.134 193.185 207.134 174.172H205.134ZM219.606 219.27C229.509 229.667 241.907 234.868 256.73 234.868V232.868C242.433 232.868 230.565 227.877 221.054 217.89L219.606 219.27ZM452.451 73.344H453.451V72.344H452.451V73.344ZM452.451 275V276H453.451V275H452.451ZM401.491 275H400.491V276H401.491V275ZM401.491 73.344V72.344H400.491V73.344H401.491ZM376.011 42.404L376.719 41.6969L376.011 42.404ZM376.011 8.18799L376.719 8.89509L376.728 8.88603L376.736 8.87674L376.011 8.18799ZM410.227 8.18799L409.502 8.87674L409.52 8.89532L409.539 8.91298L410.227 8.18799ZM410.227 42.404L409.539 41.679L409.529 41.6878L409.52 41.6969L410.227 42.404ZM443.351 42.404L444.059 41.6969H444.059L443.351 42.404ZM443.351 8.18799L444.059 8.89509L444.068 8.88603L444.076 8.87673L443.351 8.18799ZM477.567 8.18799L476.842 8.87673L476.86 8.89532L476.879 8.91298L477.567 8.18799ZM477.567 42.404L476.879 41.679L476.869 41.6878L476.86 41.6969L477.567 42.404ZM451.451 73.344V275H453.451V73.344H451.451ZM452.451 274H401.491V276H452.451V274ZM402.491 275V73.344H400.491V275H402.491ZM401.491 74.344H452.451V72.344H401.491V74.344ZM393.119 48.32C386.578 48.32 381.133 46.1114 376.719 41.6969L375.304 43.1111C380.111 47.9179 386.072 50.32 393.119 50.32V48.32ZM376.719 41.6969C372.304 37.2824 370.095 31.8379 370.095 25.296H368.095C368.095 32.3434 370.497 38.3043 375.304 43.1111L376.719 41.6969ZM370.095 25.296C370.095 18.7541 372.304 13.3096 376.719 8.89509L375.304 7.48088C370.497 12.2877 368.095 18.2485 368.095 25.296H370.095ZM376.736 8.87674C381.155 4.22549 386.594 1.90799 393.119 1.90799V-0.0920067C386.055 -0.0920067 380.089 2.44383 375.286 7.49924L376.736 8.87674ZM393.119 1.90799C399.645 1.90799 405.084 4.22549 409.502 8.87674L410.952 7.49924C406.15 2.44383 400.184 -0.0920067 393.119 -0.0920067V1.90799ZM409.539 8.91298C414.19 13.3317 416.507 18.7708 416.507 25.296H418.507C418.507 18.2319 415.972 12.2656 410.916 7.46299L409.539 8.91298ZM416.507 25.296C416.507 31.8212 414.19 37.2603 409.539 41.679L410.916 43.129C415.972 38.3263 418.507 32.3601 418.507 25.296H416.507ZM409.52 41.6969C405.106 46.1114 399.661 48.32 393.119 48.32V50.32C400.167 50.32 406.128 47.9179 410.935 43.1111L409.52 41.6969ZM460.459 48.32C453.918 48.32 448.473 46.1114 444.059 41.6969L442.644 43.1111C447.451 47.9179 453.412 50.32 460.459 50.32V48.32ZM444.059 41.6969C439.644 37.2824 437.435 31.8379 437.435 25.296H435.435C435.435 32.3434 437.837 38.3043 442.644 43.1111L444.059 41.6969ZM437.435 25.296C437.435 18.7541 439.644 13.3096 444.059 8.89509L442.644 7.48088C437.837 12.2877 435.435 18.2485 435.435 25.296H437.435ZM444.076 8.87673C448.495 4.22549 453.934 1.90799 460.459 1.90799V-0.0920067C453.395 -0.0920067 447.429 2.44383 442.626 7.49924L444.076 8.87673ZM460.459 1.90799C466.985 1.90799 472.424 4.22549 476.842 8.87673L478.292 7.49924C473.49 2.44383 467.524 -0.0920067 460.459 -0.0920067V1.90799ZM476.879 8.91298C481.53 13.3317 483.847 18.7708 483.847 25.296H485.847C485.847 18.2319 483.312 12.2656 478.256 7.46299L476.879 8.91298ZM483.847 25.296C483.847 31.8212 481.53 37.2603 476.879 41.679L478.256 43.129C483.312 38.3263 485.847 32.3601 485.847 25.296H483.847ZM476.86 41.6969C472.446 46.1114 467.001 48.32 460.459 48.32V50.32C467.507 50.32 473.468 47.9179 478.275 43.1111L476.86 41.6969ZM504.518 119.572L505.395 120.052L505.398 120.046L504.518 119.572ZM539.826 83.172L540.317 84.0429L540.328 84.0368L539.826 83.172ZM653.394 88.996L652.781 89.786L652.787 89.791L652.794 89.796L653.394 88.996ZM686.518 141.412V142.412H687.795L687.488 141.172L686.518 141.412ZM631.554 141.412L630.605 141.728L630.833 142.412H631.554V141.412ZM616.63 121.028L616.03 121.828L616.046 121.84L616.062 121.851L616.63 121.028ZM556.57 129.4L557.345 130.031L557.352 130.023L556.57 129.4ZM556.57 218.944L555.787 219.567L555.794 219.575L556.57 218.944ZM631.554 206.932V205.932H630.839L630.607 206.608L631.554 206.932ZM686.518 206.932L687.487 207.18L687.805 205.932H686.518V206.932ZM653.394 258.984L654.008 259.773L653.394 258.984ZM539.826 265.536L539.323 266.401L539.334 266.407L539.826 265.536ZM504.518 229.136L503.637 229.61L503.64 229.616L504.518 229.136ZM492.778 174.172C492.778 153.44 496.995 135.411 505.395 120.052L503.64 119.092C495.053 134.794 490.778 153.165 490.778 174.172H492.778ZM505.398 120.046C513.805 104.433 525.443 92.4398 540.317 84.0428L539.334 82.3012C524.118 90.8909 512.217 103.165 503.637 119.098L505.398 120.046ZM540.328 84.0368C555.203 75.3993 572.256 71.068 591.514 71.068V69.068C571.945 69.068 554.538 73.4727 539.323 82.3072L540.328 84.0368ZM591.514 71.068C616.335 71.068 636.732 77.3307 652.781 89.786L654.007 88.206C637.538 75.4239 616.681 69.068 591.514 69.068V71.068ZM652.794 89.796C669.087 102.016 680.013 119.278 685.547 141.652L687.488 141.172C681.859 118.41 670.703 100.728 653.994 88.196L652.794 89.796ZM686.518 140.412H631.554V142.412H686.518V140.412ZM632.502 141.096C629.527 132.171 624.427 125.191 617.197 120.205L616.062 121.851C622.906 126.572 627.756 133.181 630.605 141.728L632.502 141.096ZM617.23 120.228C610.229 114.978 601.513 112.384 591.15 112.384V114.384C601.17 114.384 609.441 116.886 616.03 121.828L617.23 120.228ZM591.15 112.384C576.308 112.384 564.484 117.844 555.787 128.777L557.352 130.023C565.642 119.602 576.871 114.384 591.15 114.384V112.384ZM555.794 128.769C547.103 139.446 542.83 154.628 542.83 174.172H544.83C544.83 154.889 549.049 140.223 557.345 130.031L555.794 128.769ZM542.83 174.172C542.83 193.479 547.106 208.653 555.787 219.567L557.352 218.321C549.047 207.881 544.83 193.206 544.83 174.172H542.83ZM555.794 219.575C564.494 230.264 576.317 235.596 591.15 235.596V233.596C576.862 233.596 565.631 228.493 557.345 218.313L555.794 219.575ZM591.15 235.596C601.611 235.596 610.346 233.256 617.286 228.505C624.23 223.75 629.289 216.64 632.5 207.256L630.607 206.608C627.509 215.667 622.679 222.388 616.156 226.855C609.627 231.325 601.315 233.596 591.15 233.596V235.596ZM631.554 207.932H686.518V205.932H631.554V207.932ZM685.549 206.684C680.018 228.327 669.092 245.481 652.779 258.195L654.008 259.773C670.698 246.764 681.855 229.217 687.487 207.18L685.549 206.684ZM652.779 258.195C636.484 270.896 616.085 277.276 591.514 277.276V279.276C616.446 279.276 637.301 272.795 654.008 259.773L652.779 258.195ZM591.514 277.276C572.251 277.276 555.195 273.064 540.317 264.665L539.334 266.407C554.547 274.995 571.95 279.276 591.514 279.276V277.276ZM540.328 264.671C525.443 256.029 513.802 244.03 505.395 228.656L503.64 229.616C512.22 245.304 524.117 257.571 539.323 266.401L540.328 264.671ZM505.398 228.662C496.995 213.057 492.778 194.903 492.778 174.172H490.778C490.778 195.179 495.053 213.669 503.637 229.61L505.398 228.662ZM969.653 36.58L969.193 37.4679L969.197 37.4701L969.653 36.58ZM1016.61 81.352L1015.74 81.8423L1015.74 81.8488L1015.74 81.8552L1016.61 81.352ZM1016.61 215.304L1015.74 214.801L1015.74 214.804L1016.61 215.304ZM969.653 259.348L969.197 258.458L969.193 258.46L969.653 259.348ZM810.585 275H809.585V276H810.585V275ZM810.585 20.928V19.928H809.585V20.928H810.585ZM959.461 209.844L958.754 209.137L959.461 209.844ZM959.461 86.448L958.742 87.1434L958.748 87.1492L959.461 86.448ZM861.545 63.88V62.88H860.545V63.88H861.545ZM861.545 231.684H860.545V232.684H861.545V231.684ZM899.401 21.928C925.962 21.928 949.217 27.1189 969.193 37.4679L970.113 35.6921C949.806 25.1718 926.226 19.928 899.401 19.928V21.928ZM969.197 37.4701C989.411 47.8179 1004.92 62.6052 1015.74 81.8423L1017.48 80.8617C1006.46 61.2721 990.662 46.2114 970.108 35.6898L969.197 37.4701ZM1015.74 81.8552C1026.81 100.852 1032.35 122.998 1032.35 148.328H1034.35C1034.35 122.698 1028.74 100.194 1017.47 80.8488L1015.74 81.8552ZM1032.35 148.328C1032.35 173.658 1026.81 195.804 1015.74 214.801L1017.47 215.807C1028.74 196.462 1034.35 173.958 1034.35 148.328H1032.35ZM1015.74 214.804C1004.92 233.557 989.418 248.107 969.197 258.458L970.108 260.238C990.655 249.72 1006.45 234.907 1017.47 215.804L1015.74 214.804ZM969.193 258.46C949.217 268.809 925.962 274 899.401 274V276C926.226 276 949.806 270.756 970.113 260.236L969.193 258.46ZM899.401 274H810.585V276H899.401V274ZM811.585 275V20.928H809.585V275H811.585ZM810.585 21.928H899.401V19.928H810.585V21.928ZM897.581 232.684C924.457 232.684 945.369 225.35 960.168 210.551L958.754 209.137C944.432 223.458 924.091 230.684 897.581 230.684V232.684ZM960.168 210.551C974.965 195.754 982.301 174.965 982.301 148.328H980.301C980.301 174.592 973.077 194.814 958.754 209.137L960.168 210.551ZM982.301 148.328C982.301 121.69 974.964 100.784 960.174 85.7468L958.748 87.1492C973.077 101.717 980.301 122.064 980.301 148.328H982.301ZM960.179 85.7526C945.383 70.4625 924.466 62.88 897.581 62.88V64.88C924.082 64.88 944.419 72.3428 958.742 87.1434L960.179 85.7526ZM897.581 62.88H861.545V64.88H897.581V62.88ZM860.545 63.88V231.684H862.545V63.88H860.545ZM861.545 232.684H897.581V230.684H861.545V232.684ZM1071.13 269.176L1070.43 269.883L1070.44 269.898L1070.46 269.912L1071.13 269.176ZM1071.13 226.588L1071.83 227.31L1071.83 227.309L1071.13 226.588ZM1116.27 226.588L1115.56 227.295L1115.57 227.303L1115.58 227.31L1116.27 226.588ZM1116.27 269.176L1116.96 269.898L1116.97 269.891L1116.98 269.883L1116.27 269.176ZM1094.07 276.548C1085.06 276.548 1077.67 273.831 1071.81 268.44L1070.46 269.912C1076.73 275.684 1084.63 278.548 1094.07 278.548V276.548ZM1071.84 268.469C1066.21 262.839 1063.4 255.937 1063.4 247.7H1061.4C1061.4 256.449 1064.41 263.865 1070.43 269.883L1071.84 268.469ZM1063.4 247.7C1063.4 239.463 1066.21 232.692 1071.83 227.31L1070.44 225.866C1064.41 231.647 1061.4 238.95 1061.4 247.7H1063.4ZM1071.83 227.309C1077.69 221.682 1085.08 218.852 1094.07 218.852V216.852C1084.61 216.852 1076.71 219.846 1070.44 225.867L1071.83 227.309ZM1094.07 218.852C1102.81 218.852 1109.95 221.676 1115.56 227.295L1116.98 225.881C1110.95 219.852 1103.28 216.852 1094.07 216.852V218.852ZM1115.58 227.31C1121.19 232.692 1124.01 239.463 1124.01 247.7H1126.01C1126.01 238.95 1122.99 231.647 1116.96 225.866L1115.58 227.31ZM1124.01 247.7C1124.01 255.937 1121.19 262.839 1115.56 268.469L1116.98 269.883C1123 263.865 1126.01 256.449 1126.01 247.7H1124.01ZM1115.58 268.454C1109.96 273.836 1102.82 276.548 1094.07 276.548V278.548C1103.27 278.548 1110.93 275.679 1116.96 269.898L1115.58 268.454Z" fill="#252525" mask="url(#path-1-outside-1_41_2542)"/>
</svg>
