<svg width="45" height="41" viewBox="0 0 45 41" fill="none" xmlns="http://www.w3.org/2000/svg">
<g clip-path="url(#clip0_20_367)">
<path d="M22.563 0V10.4569C28.557 10.4569 33.417 14.8444 33.417 20.2556C33.417 25.6669 28.557 30.0544 22.563 30.0544V40.5113C34.956 40.5113 45 31.4438 45 20.2556C45 9.0675 34.956 0 22.563 0Z" fill="#252525"/>
<path d="M22.563 10.4569V30.0625C16.569 30.0625 11.709 25.675 11.709 20.2638C11.709 14.8525 16.569 10.465 22.563 10.465V10.4569Z" fill="#252525"/>
<path d="M22.554 30.0625H11.7V40.5194H22.554V30.0625Z" fill="#252525"/>
<path d="M11.709 30.0625L11.709 0L0.125986 0L0.125986 30.0625H11.709Z" fill="#252525"/>
</g>
<defs>
<clipPath id="clip0_20_367">
<rect width="45" height="40.625" fill="#252525"/>
</clipPath>
</defs>
</svg>
